<svg xmlns="http://www.w3.org/2000/svg" width="1600" height="900" viewBox="0 0 1600 900" fill="none">
  <defs>
    <linearGradient id="sky" x1="800" y1="0" x2="800" y2="900" gradientUnits="userSpaceOnUse">
      <stop stop-color="#0B5E76"/>
      <stop offset="0.45" stop-color="#1597C2"/>
      <stop offset="1" stop-color="#F2E8D2"/>
    </linearGradient>
    <linearGradient id="panel" x1="280" y1="540" x2="1300" y2="870" gradientUnits="userSpaceOnUse">
      <stop stop-color="#12364A"/>
      <stop offset="1" stop-color="#0A1822"/>
    </linearGradient>
    <linearGradient id="shine" x1="1030" y1="80" x2="920" y2="340" gradientUnits="userSpaceOnUse">
      <stop stop-color="#FFF7D2" stop-opacity="0.95"/>
      <stop offset="1" stop-color="#FFF7D2" stop-opacity="0"/>
    </linearGradient>
  </defs>
  <rect width="1600" height="900" fill="url(#sky)"/>
  <circle cx="1090" cy="135" r="180" fill="url(#shine)"/>
  <path d="M0 495C170 465 360 487 522 534C701 586 839 622 1022 614C1178 607 1385 552 1600 500V900H0V495Z" fill="#214356" fill-opacity="0.42"/>
  <path d="M0 612H1600V900H0V612Z" fill="url(#panel)"/>
  <g opacity="0.95">
    <path d="M0 742L1600 634" stroke="#7CA9BF" stroke-width="7"/>
    <path d="M0 806L1600 714" stroke="#7CA9BF" stroke-width="6"/>
    <path d="M0 872L1600 794" stroke="#7CA9BF" stroke-width="5"/>
    <path d="M248 615L126 900" stroke="#9CC6D9" stroke-width="5"/>
    <path d="M475 608L360 900" stroke="#9CC6D9" stroke-width="5"/>
    <path d="M708 600L603 900" stroke="#9CC6D9" stroke-width="5"/>
    <path d="M948 591L850 900" stroke="#9CC6D9" stroke-width="5"/>
    <path d="M1192 581L1102 900" stroke="#9CC6D9" stroke-width="5"/>
    <path d="M1438 568L1358 900" stroke="#9CC6D9" stroke-width="5"/>
  </g>
  <path d="M0 545C192 504 331 508 531 560" stroke="#EAF7FF" stroke-width="10" stroke-linecap="round" opacity="0.52"/>
  <path d="M236 430C378 394 585 397 764 454" stroke="#F8FBFF" stroke-width="6" stroke-linecap="round" opacity="0.28"/>
</svg>
